<svg aria-hidden="true" style="position:absolute;width:0;height:0;overflow:hidden" xmlns="http://www.w3.org/2000/svg">
  <defs>
    <symbol id="icon-home" viewBox="0 0 32 32">
      <path d="M30.129 15.446a1.42 1.42 0 0 0-.118-2.051l-.002-.002L16.372 1.624a1.712 1.712 0 0 0-2.217.026l.002-.002L.476 14.02a1.41 1.41 0 0 0-.066 2.051l.345.352c.566.586 1.487.655 2.053.155l1.022-.903v13.226a1.478 1.478 0 0 0 1.477 1.467h5.356c.812 0 1.471-.656 1.477-1.467v-9.253h6.804v9.253c-.012.812.576 1.467 1.398 1.467h5.662c.812 0 1.471-.656 1.477-1.467V15.862l.633.546c.347.3 1.078.059 1.63-.542l.389-.418z"/>
    </symbol>
    <symbol id="icon-social1" viewBox="0 0 32 32">
      <path d="M16 0C7.211 0 0 7.211 0 16c0 7.499 5.262 14.312 12.25 16v-5.293a3.921 3.921 0 0 1-2.062-.06l.028.007c-.946-.278-1.714-.909-2.285-1.869-.363-.613-1.008-1.28-1.68-1.23l-.165-1.867c1.454-.125 2.71.886 3.456 2.139.333.558.715.885 1.205 1.029.472.141.981.074 1.573-.136.149-1.186.693-1.629 1.104-2.256-4.168-.621-5.829-2.832-6.488-4.576-.874-2.318-.405-5.213 1.139-7.043.03-.035.085-.128.064-.192-.709-2.141.154-3.91.186-4.098.818.24.95-.243 3.552 1.336l.448.27c.189.112.128.048.317.032a13.246 13.246 0 0 1 3.349-.469h.01c1.136.014 2.272.176 3.403.483l.146.016c-.013-.003.04-.01.128-.062 3.248-1.968 3.131-1.325 4.003-1.608.032.189.882 1.987.182 4.099-.096.291 2.816 2.957 1.202 7.235-.659 1.744-2.32 3.957-6.486 4.578.534.816 1.176 1.248 1.173 2.928v6.606c6.986-1.688 12.25-8.501 12.25-16 0-8.789-7.211-16-16-16z"/>
    </symbol>
    <symbol id="icon-social2" viewBox="0 0 32 32">
      <path d="m12.612 19.671-.49 6.444c.703 0 1.007-.282 1.372-.62l3.292-2.938 6.822 4.665c1.251.65 2.134.307 2.473-1.075L30.558 6.56c.399-1.727-.669-2.401-1.887-1.978L2.348 13.989c-1.796.652-1.77 1.585-.305 2.012l6.729 1.952 15.632-9.129c.736-.455 1.405-.204.855.252L12.612 19.672z"/>
    </symbol>
    <symbol id="icon-social3" viewBox="0 0 16 32">
      <path d="M14.143 15.971H10.11v14.865H3.998V15.971H1.092v-5.222h2.906V7.367c0-2.417 1.142-6.204 6.167-6.204l4.527.019v5.072h-3.284c-.538 0-1.297.272-1.297 1.425v3.073h4.567l-.534 5.219z"/>
    </symbol>
    <symbol id="icon-x" viewBox="0 0 32 32">
      <path d="M32 3.223 28.777 0 16 12.777 3.223 0 0 3.223 12.777 16 0 28.777 3.223 32 16 19.223 28.777 32 32 28.777 19.223 16 32 3.223z"/>
    </symbol>
    <symbol id="icon-arrow-right" viewBox="0 0 32 32">
      <path d="m19.414 27.414 10-10a2 2 0 0 0 0-2.828l-10-10a2 2 0 1 0-2.828 2.828L23.172 14H4a2 2 0 1 0 0 4h19.172l-6.586 6.586c-.39.39-.586.902-.586 1.414s.195 1.024.586 1.414a2 2 0 0 0 2.828 0z"/>
    </symbol>
    <symbol id="icon-ctrl" viewBox="0 0 32 32">
      <path d="M23 14c-.278 0-.555-.116-.753-.341L16 6.519l-6.247 7.14a1 1 0 1 1-1.505-1.317l7-8a1 1 0 0 1 1.506 0l7 8A1 1 0 0 1 23.002 14z"/>
    </symbol>
    <symbol id="icon-up-arrow" viewBox="0 0 32 32">
      <path d="M16.001 32c8.836 0 15.999-7.164 15.999-16s-7.163-16-15.999-16c-8.837 0-16.001 7.163-16.001 16s7.164 16 16.001 16zM16.001 3.478c6.915 0 12.521 5.606 12.521 12.522s-5.606 12.522-12.521 12.522c-6.917 0-12.522-5.606-12.522-12.522s5.606-12.522 12.522-12.522zM12.87 22.696h6.261v-7.113h3.913l-7.043-6.626-7.043 6.626h3.913v7.113z"></path>
    </symbol>
    <symbol id="icon-white-angle-bracket" viewBox="0 0 19 32">
<path fill="none" stroke="#fff" style="stroke: var(--color1, #fff)" stroke-linejoin="round" stroke-linecap="round" stroke-miterlimit="4" stroke-width="6.4" d="M3.2 3.2l11.553 12.8-11.553 12.8"></path>
</symbol>
<symbol id="icon-burger" viewBox="0 0 32 32">
<path d="M6.4 11.734v-2.134h19.2v2.134h-19.2zM6.4 17.066h19.2v-2.133h-19.2v2.133zM6.4 22.4h19.2v-2.134h-19.2v2.134z"></path>
</symbol>
  </defs>
</svg>
